<svg width="117" height="24" viewBox="0 0 200 40" fill="none" xmlns="http://www.w3.org/2000/svg"><path d="M72.372 16.577c0-3.409-2.311-6.732-7.282-6.732H52.232v20.226h4.335V13.485h7.89c2.427 0 3.582 1.186 3.582 3.092 0 1.936-1.157 3.121-3.583 3.121H61.1c-1.52 0-2.375.855-2.375 2.375v1.267h2.408c1.126 0 1.964.377 2.66 1.272l4.275 5.46h5.316l-5.952-7.57c3.178-.725 4.94-2.806 4.94-5.925zM87.956 9.843h-4.335v20.226h4.335V9.843zM121.362 9.843h-4.623L109.4 25.505l-7.34-15.662h-4.623l9.651 20.228h4.623l9.651-20.228zM135.256 9.843h-4.335v20.226h4.335V9.843zM159.299 9.843h-4.623l-9.939 20.226h4.623l1.243-2.6c.519-1.098 1.329-1.59 2.543-1.59h7.513l-.896-1.907c-.549-1.186-1.445-1.733-2.773-1.733h-3.842l3.842-7.975 7.627 15.805h4.624l-9.942-20.226zM200 9.843h-4.19v15.026L183.703 9.843h-4.969v20.228h4.19V15.044l12.105 15.027H200V9.843zM41.078 18.41C38.75 16.01 26.155 3.02 23.794 1.146 22.971.485 21.911 0 20.58 0c-1.332 0-2.393.484-3.215 1.145C15.005 3.019 2.41 16.009.081 18.41c-.19.218-.019.562.267.562 1.163 0 3.86.004 5.484.004.572 0 .742-.1 1.102-.487l2.15-2.307c2.276-2.455 7.83-7.875 9.859-9.584.762-.641 1.625-.62 1.637-.62.012 0 .875-.021 1.637.62 2.03 1.711 7.583 7.131 9.86 9.584l2.15 2.307c.36.387.529.487 1.101.487 1.623 0 4.32-.004 5.484-.004.286.002.456-.344.266-.562zM.08 21.503c2.328 2.401 14.922 15.392 17.283 17.266.823.66 1.884 1.145 3.215 1.145 1.332 0 2.393-.485 3.215-1.145 2.36-1.874 14.954-14.865 17.282-17.266.19-.219.018-.562-.268-.562-1.163 0-3.858-.004-5.483-.004-.572 0-.742.1-1.102.486l-2.15 2.308c-2.277 2.454-7.83 7.874-9.86 9.583-.762.642-1.624.621-1.636.621-.013 0-.875.02-1.637-.62-2.03-1.712-7.583-7.132-9.86-9.584l-2.15-2.308c-.36-.386-.53-.486-1.102-.486-1.622 0-4.32.004-5.483.004-.282 0-.454.343-.264.562z" fill="#151515"/><path d="M19.057 24.252c-1.038-.948-2.867-2.723-3.548-3.517-.31-.352-.29-.791-.29-.791s-.02-.44.29-.791c.68-.795 2.51-2.57 3.548-3.518.425-.396.527-.646.527-1.132V9.109c0-.216-.253-.351-.45-.17-2.315 2.145-7.473 7.256-9.203 9.237-.827.876-.75 1.77-.75 1.77s-.075.89.75 1.77c1.732 1.98 6.89 7.092 9.204 9.235.206.18.45.068.45-.188v-5.377c0-.49-.103-.74-.528-1.134zM22.102 24.256c1.039-.948 2.868-2.722 3.548-3.517.311-.352.29-.791.29-.791s.021-.44-.29-.791c-.68-.795-2.51-2.57-3.548-3.518-.425-.396-.527-.646-.527-1.132V9.13c0-.256.243-.368.45-.188 2.315 2.144 7.474 7.255 9.203 9.236.826.877.75 1.77.75 1.77s.076.89-.75 1.77c-1.731 1.98-6.89 7.092-9.203 9.236-.207.18-.45.067-.45-.188v-5.378c.002-.488.102-.736.527-1.132z" fill="#151515"/></svg>