<svg xmlns="http://www.w3.org/2000/svg" width="35" height="16"><path fill="#fff" d="M2.026 10.328c-.344-.978-.427-1.974-.352-2.976a6.824 6.824 0 0 1 .876-2.866 7.536 7.536 0 0 1 1.775-2.114A7.451 7.451 0 0 1 7.088.917C7.692.747 8.304.632 8.936.632c5.686 0 11.372.002 17.057 0 .94 0 1.83.207 2.694.549a7.308 7.308 0 0 1 2.69 1.833c.903.97 1.543 2.087 1.792 3.385.089.467.145.943.172 1.419.063 1.11-.176 2.167-.639 3.184a7.345 7.345 0 0 1-1.723 2.371 7.561 7.561 0 0 1-1.55 1.092c-.736.397-1.526.647-2.346.81a4.965 4.965 0 0 1-.959.09c-5.722.004-11.444.006-17.166 0-.853 0-1.673-.19-2.47-.485a7.582 7.582 0 0 1-2.033-1.14c-.714-.555-1.316-1.217-1.756-1.998-.253-.45-.445-.932-.675-1.414"/><path fill="#06f" d="M1.693 10.451c-.351-1.03-.436-2.079-.36-3.134A7.345 7.345 0 0 1 2.228 4.3a7.88 7.88 0 0 1 1.814-2.226A7.538 7.538 0 0 1 6.864.543C7.481.363 8.106.242 8.752.242c5.808.001 11.616.002 17.424 0 .96 0 1.87.218 2.752.578a7.462 7.462 0 0 1 2.747 1.93c.923 1.022 1.577 2.197 1.831 3.564.09.492.149.994.176 1.494.064 1.17-.18 2.282-.652 3.352a7.727 7.727 0 0 1-1.76 2.497 7.728 7.728 0 0 1-1.583 1.15c-.753.418-1.56.682-2.398.853-.32.066-.652.093-.98.094-5.844.005-11.69.007-17.535 0-.872 0-1.71-.2-2.524-.51a7.685 7.685 0 0 1-2.076-1.2c-.73-.585-1.344-1.281-1.794-2.104-.259-.473-.455-.981-.69-1.489m14.495 3.032 3.204-11.906h-.193c-3.37 0-6.739-.003-10.109.003-.339 0-.681.031-1.016.082-3.732.566-6.18 4.317-5.202 7.962.765 2.854 3.269 4.78 6.248 4.792 2.207.008 4.414.002 6.62.002.066 0 .131-.007.202-.01l.247-.924M24.9 8.978l1.982 1.977c.147.147.288.3.445.434a.658.658 0 0 0 .786.051c.236-.153.364-.439.276-.714a1.065 1.065 0 0 0-.259-.403c-.765-.774-1.54-1.539-2.36-2.357.48-.459.95-.899 1.41-1.349.344-.337.682-.68 1.013-1.029a.643.643 0 0 0 .113-.778c-.133-.25-.41-.406-.688-.334a1.03 1.03 0 0 0-.446.262c-.716.708-1.422 1.428-2.127 2.148-.054.056-.081.14-.124.219l-1.087-1.09c-.45-.452-.898-.904-1.351-1.352a.642.642 0 0 0-.694-.166.633.633 0 0 0-.445.533c-.043.257.076.455.252.631.725.722 1.446 1.446 2.168 2.17.055.056.107.114.22.235l-2.33 2.25a1.668 1.668 0 0 0-.18.197.657.657 0 0 0 .341 1.035c.29.09.52-.02.72-.224a123.89 123.89 0 0 1 2.365-2.346z"/><path fill="#0267ff" d="M12.134 8.722c-.682.802-1.35 1.594-2.028 2.378a1.533 1.533 0 0 1-.408.33c-.277.154-.552.103-.774-.117a321.1 321.1 0 0 1-2.482-2.484.658.658 0 0 1-.011-.938c.262-.269.668-.275.953.004.608.597 1.207 1.203 1.808 1.806.057.058.101.128.166.21.087-.095.146-.156.2-.222 1.335-1.568 2.665-3.139 4.008-4.7.121-.14.31-.256.49-.305.266-.074.539.088.665.332.143.273.106.533-.089.764-.35.421-.708.836-1.064 1.253l-1.434 1.688z"/></svg>